<?xml version="1.0" encoding="utf-8"?>
<!-- Generator: Adobe Illustrator 27.5.0, SVG Export Plug-In . SVG Version: 6.00 Build 0)  -->
<svg version="1.1" id="Layer_1" xmlns="http://www.w3.org/2000/svg" xmlns:xlink="http://www.w3.org/1999/xlink" x="0px" y="0px"
	 viewBox="0 0 320 263" style="enable-background:new 0 0 320 263;" xml:space="preserve">
<style type="text/css">
	.st0{fill:#FAFAFA;}
	.st1{fill:#040303;}
</style>
<path class="st0" d="M30.4,19.6c3.9-4.2,13.3-6.5,18-4.2c5.2,2.6,8,7.2,7.5,13c-0.3,3.1,1.4,4.1,3.3,5.3c18,10.4,36,20.7,54.1,31.1
	c12.5,7.2,24.9,14.3,37.5,21.4c0.9,0.5,2.6,0.6,3.4,0.1c6.4-4.5,12.4-3.1,18.8,0.9c19.7-11.3,39.5-22.7,59.4-34.2
	c11.3-6.5,22.5-13.1,33.8-19.6c2.1-1.2,3.3-2.2,3.1-5.2c-0.4-8,5.2-13.2,13.2-13.3c9.8,0,15.5,4.3,15.3,12.5
	c-0.1,7.4-5.1,14.8-15.5,14.6c-1.4,0-3.3,1.3-4.1,2.6c-14.6,25-29,50.2-43.4,75.3c-0.6,1.1-0.5,3.3,0.2,4.5
	c5.8,10.6-0.8,22.1-12.8,22.2c-1.4,0-3.4,1-4.1,2.1c-14.7,25.2-29.3,50.4-43.8,75.7c-0.7,1.1-0.4,3.3,0.2,4.6
	c3.7,7.1,2.7,14.1-3,18.8c-5.1,4.2-12.6,4.3-17.9,0.1c-5.5-4.4-6.5-11.6-3-18.9c0.7-1.5,0.4-4.1-0.4-5.6
	c-19.6-34.2-39.3-68.3-59-102.4C76.7,95.9,62.2,70.7,47.6,45.4c-1.2-2-2.1-3.5-5.2-3.5C30.3,41.9,24.2,30.7,30.4,19.6 M70.3,66.7
	c-0.4-0.2-0.8-0.3-1.2-0.5c0.3,0.6,0.5,1.3,0.9,2.6c4,7.2,8,14.4,12.1,21.5c17.6,30.5,35.3,61,52.9,91.5c7.7,13.3,15.4,26.6,23.7,41
	c0-14.7,0-28.1,0-41.4c-9.8-5.3-11.6-9.8-9-20.3c0.3-1.2-0.5-3.1-1.4-4.1c-9.4-11-18.9-22-28.3-32.9
	C103.6,105.1,87.1,86.2,70.3,66.7 M115.5,75C98,64.8,80.4,54.6,62.8,44.4c-0.3,0.4-0.6,0.8-0.9,1.3c8.1,9.1,16.4,18.1,24.4,27.3
	c22.9,26.5,45.6,53.1,68.4,79.6c0.7,0.8,2.3,1.6,3.2,1.3c5.6-2,10.3-0.3,14.8,3.3c11.3-6.5,22.5-13,33.7-19.6
	c3.8-2.3,3.8-8.1-0.1-10.3c-10.3-6-20.6-12-31-17.7c-1.3-0.7-3.4-0.2-5.1,0.1c-3.5,0.5-7.1,2.3-10.3,1.7
	c-8.3-1.7-11.3-6.7-11.5-17.4C137.7,87.7,127,81.4,115.5,75 M210.1,74.6c-11.2,6.5-22.3,12.9-33.3,19.3c0,2.6,0,4.9,0,7.5
	c10.9,6.2,22,12.5,32.9,18.9c2.6,1.5,4.4,1.6,6.9-0.2c1.7-1.2,4.4-2,6.4-1.7c3.3,0.5,4.3-1.1,5.6-3.3c13.5-23.6,27.1-47.1,40.7-70.6
	c0.8-1.3,1.3-2.7,2-4.1c-0.3-0.2-0.5-0.4-0.8-0.5C250.6,51.3,230.6,62.7,210.1,74.6 M177.4,203.9c11.4-19.8,22.9-39.7,34.3-59.5
	c-11.6,5.8-22.8,12.1-33.8,18.6c-0.7,0.4-0.9,1.9-0.9,2.9c0,6.2-2.4,11.1-7.9,13.9c-2.4,1.2-2.9,2.6-2.8,5c0.1,10.6,0,21.3,0,31.9
	c0,1.5,0,2.9,0,4.4c0.4,0,0.7,0,1.1,0.1C170.6,215.6,173.8,210.1,177.4,203.9z"/>
<path class="st1" d="M70.1,67.9c-0.5-0.4-0.7-1.1-1-1.7c0.4,0.2,0.8,0.3,1.3,0.8C70.5,67.4,70.4,67.5,70.1,67.9z"/>
</svg>
